<svg viewBox="0 0 800 800" xmlns="http://www.w3.org/2000/svg"><path d="M297.39619353390793,590.3452369610374 L266.2270926507255,583.1752717323785 M266.2270926507255,583.1752717323785 L236.5381007088177,574.1613916786423 M236.5381007088177,574.1613916786423 L208.65625812238306,563.4047844956013 M208.65625812238306,563.4047844956013 L182.88779640735513,551.0259358539116 M182.88779640735513,551.0259358539116 L159.5145847438971,537.163294678997 M159.5145847438971,537.163294678997 L138.79120077377132,521.9714659089658 M138.79120077377132,521.9714659089658 L120.94200386943106,505.619472606506 M120.94200386943106,505.619472606506 L106.15879422640768,488.28873631461755 M106.15879422640768,488.28873631461755 L94.59896998773945,470.17090418646495 M94.59896998773945,470.17090418646495 L86.38373673088535,451.46573660745673 M86.38373673088535,451.46573660745673 L81.59724307419845,432.3787521638908 M81.59724307419845,432.3787521638908 L80.2857526603114,413.11894908441445 M80.2857526603114,413.11894908441445 L82.45739518947664,393.8964699025634 M82.45739518947664,393.8964699025634 L88.08246202470059,374.92032587265146 M88.08246202470059,374.92032587265146 L97.09385435915368,356.3961433792901 M97.09385435915368,356.3961433792901 L109.38813632075369,338.5238967502615 M109.38813632075369,338.5238967502615 L124.82690034783377,321.49594815395585 M124.82690034783377,321.49594815395585 L143.23843962535983,305.49494692267524 M143.23843962535983,305.49494692267524 L164.41976313631824,290.6920082411326 M164.41976313631824,290.6920082411326 L188.13887908796346,277.24496882909244 M188.13887908796346,277.24496882909244 L214.13743941856762,265.29684698354356 M214.13743941856762,265.29684698354356 L242.13353247323326,254.97442771465248 M242.13353247323326,254.97442771465248 L271.8246176138272,246.3869959568001 M271.8246176138272,246.3869959568001 L302.89079177260817,239.62532133456634 M302.89079177260817,239.62532133456634 L334.99810218384266,234.76075373762535 M334.99810218384266,234.76075373762535 L367.80198139397106,231.84460317844895 M367.80198139397106,231.84460317844895 L400.9507402753483,230.90758209081574 M400.9507402753483,230.90758209081574 L434.08921742972984,231.9595574220697 M434.08921742972984,231.9595574220697 L466.8623373023226,234.989459530565 M466.8623373023226,234.989459530565 L498.91872816468964,239.96535052561566 M498.91872816468964,239.96535052561566 L529.9143313000127,246.83478289515594 M529.9143313000127,246.83478289515594 L559.5159314564721,255.52523896214197 M559.5159314564721,255.52523896214197 L587.4045441058561,265.94484339114865 M587.4045441058561,265.94484339114865 L613.2787085284217,277.9832941613228 M613.2787085284217,277.9832941613228 L636.8578299427161,291.51280877893964 M636.8578299427161,291.51280877893964 L657.8849696307666,306.3894968679675 M657.8849696307666,306.3894968679675 L676.1297768013931,322.4546884302506 M676.1297768013931,322.4546884302506 L691.3910310505726,339.5365501973296 M691.3910310505726,339.5365501973296 L703.498837733641,357.4518331454259 M703.498837733641,357.4518331454259 L712.3168181097421,376.00768405985013 M712.3168181097421,376.00768405985013 L717.7435871460043,395.00371689257116 M717.7435871460043,395.00371689257116 L719.7141937348897,414.2340715283799 M719.7141937348897,414.2340715283799 L718.2010847186334,433.48960398792923 M718.2010847186334,433.48960398792923 L713.2146257978038,452.56017003490985 M713.2146257978038,452.56017003490985 L704.8032892920824,471.23692405833003 M704.8032892920824,471.23692405833003 L693.0533193741624,489.3145944139925 M693.0533193741624,489.3145944139925 L678.088143043949,506.59386136804795 M678.088143043949,506.59386136804795 L660.0671146138991,522.8835630011727 M660.0671146138991,522.8835630011727 L639.184028012904,538.0029803584366 M639.5359993580387,538.2061008335306 L639.184028012904,538.0029803584366 M626.9789692044717,545.5143717401679 L639.5359993580387,538.2061008335306 M387.32623396050235,684.993778196958 L626.9789692044717,545.5143717401679 M260.9960515550213,611.435857604487 L387.32623396050235,684.993778196958 M297.39619353390793,590.3452369610374 L260.9960515550213,611.435857604487 M497.1633090703035,358.359650267215 L480.745744306446,350.28985923633894 M480.745744306446,350.28985923633894 L462.35136215417,343.8003917275895 M462.35136215417,343.8003917275895 L442.43134279298374,339.04907859055413 M442.43134279298374,339.04907859055413 L421.47347540463676,336.1513557276734 M421.47347540463676,336.1513557276734 L399.99039590357086,335.1775657969557 M399.99039590357086,335.1775657969557 L378.5073164025049,336.15135572767326 M378.5073164025049,336.15135572767326 L357.5494490141579,339.04907859055413 M357.5494490141579,339.04907859055413 L337.6294296529717,343.8003917275895 M337.6294296529717,343.8003917275895 L319.23504750069566,350.28985923633894 M319.23504750069566,350.28985923633894 L302.8174827368378,358.3596502672153 M302.8174827368378,358.3596502672153 L288.7803892414832,367.81324915050266 M288.7803892414832,367.81324915050266 L277.46997988279213,378.4200570243749 M277.46997988279213,378.4200570243749 L269.1664890092186,389.92087764544283 M269.1664890092186,389.92087764544283 L264.07707937841707,402.0340941092333 M264.07707937841707,402.0340941092333 L262.3304660738576,414.4624578419682 M262.3304660738576,414.4624578419682 L263.9734711644599,426.9002958528805 M263.9734711644599,426.9002958528805 L268.9694144099744,439.04100774989325 M268.9694144099744,439.04100774989325 L277.19872979655145,450.5846535594453 M277.19872979655145,450.5846535594453 L288.4615153918227,461.24542439574805 M288.4615153918227,461.24542439574805 L302.4821986021434,470.758841802143 M302.4821986021434,470.758841802143 L318.916173066499,478.88845144218305 M318.916173066499,478.88845144218305 L337.35817862093165,485.43188222085143 M337.35817862093165,485.43188222085143 L357.35237346911447,490.2260209113417 M357.35237346911447,490.2260209113417 L378.4037076040116,493.1512394783424 M378.4037076040116,493.1512394783424 L399.99039590357086,494.1345038328966 M399.99039590357086,494.1345038328966 L421.5770842031301,493.1512394783424 M421.5770842031301,493.1512394783424 L442.6284183380272,490.2260209113417 M442.6284183380272,490.2260209113417 L462.62261318621,485.43188222085143 M462.62261318621,485.43188222085143 L481.0646187406427,478.88845144218305 M481.0646187406427,478.88845144218305 L497.49859320499905,470.75884180214257 M497.49859320499905,470.75884180214257 L511.519276415319,461.24542439574805 M511.519276415319,461.24542439574805 L522.7820620105902,450.5846535594453 M522.7820620105902,450.5846535594453 L531.0113773971673,439.04100774989325 M531.0113773971673,439.04100774989325 L536.0073206426819,426.9002958528805 M536.0073206426819,426.9002958528805 L537.650325733284,414.46245784196833 M537.650325733284,414.46245784196833 L535.9037124287247,402.03409410923337 M535.9037124287247,402.03409410923337 L530.8143027979231,389.92087764544283 M530.8143027979231,389.92087764544283 L522.5108119243496,378.4200570243749 M522.5108119243496,378.4200570243749 L511.2004025656585,367.81324915050277 M511.2004025656585,367.81324915050277 L497.1633090703035,358.359650267215 M297.2124924388773,473.8013080740544 L297.39619353390793,590.3452369610374 M297.2124924388773,473.8013080740544 L265.9876338418926,466.6440230283491 M265.9876338418926,466.6440230283491 L236.24557416607885,457.6460920941108 M236.24557416607885,457.6460920941108 L208.31394466005074,446.90852919027117 M208.31394466005074,446.90852919027117 L182.4995278566577,434.551612564664 M182.4995278566577,434.551612564664 L159.08469756318544,420.71355210888305 M159.08469756318544,420.71355210888305 L138.32448433825562,405.54868497101353 M138.32448433825562,405.54868497101353 L120.44364357814709,389.2257403987788 M120.44364357814709,389.2257403987788 L105.63431060904168,371.92582334147676 M105.63431060904168,371.92582334147676 L94.05415482662426,353.84024512955665 M94.05415482662426,353.84024512955665 L85.82458640063612,335.16841458376473 M85.82458640063612,335.16841458376473 L81.02989084711947,316.1154869595412 M81.02989084711947,316.1154869595412 L79.71640010991217,296.890089294719 M79.71640010991217,296.890089294719 L81.89224376985067,277.701989152289 M81.89224376985067,277.701989152289 L87.52764581212784,258.7598230858428 M87.52764581212784,258.7598230858428 L96.55537421780042,240.26884713519507 M96.55537421780042,240.26884713519507 L108.87179653391405,222.42867382298107 M108.87179653391405,222.42867382298107 L124.33824820499007,205.43131575191245 M124.33824820499007,205.43131575191245 L142.78270843236646,189.45908893765989 M142.78270843236646,189.45908893765989 L164.00181915448735,174.68279505246016 M164.00181915448735,174.68279505246016 L187.7631727659767,161.25998055831897 M187.7631727659767,161.25998055831897 L213.8079614352656,149.33339985210603 M213.8079614352656,149.33339985210603 L241.8537747293857,139.0296032846913 M241.8537747293857,139.0296032846913 L271.5975393016378,130.45767297965057 M271.5975393016378,130.45767297965057 L302.71879099440787,123.70820973055021 M302.71879099440787,123.70820973055021 L334.8829930976943,118.85243047179267 M334.8829930976943,118.85243047179267 L367.7449770134448,115.94154947251116 M367.7449770134448,115.94154947251116 L400.9524409572002,115.00622180304197 M400.9524409572002,115.00622180304197 L434.1496052781401,116.05629597328186 M434.1496052781401,116.05629597328186 L466.98077630435216,119.08072302659968 M466.98077630435216,119.08072302659968 L499.0939701635074,124.04762472054864 M499.0939701635074,124.04762472054864 L530.1445278159858,130.90465140465494 M530.1445278159858,130.90465140465494 L559.7986512653654,139.57942051906548 M559.7986512653654,139.57942051906548 L587.7367963915715,149.98022759510218 M587.7367963915715,149.98022759510218 L613.6569715337764,161.9969752820924 M613.6569715337764,161.9969752820924 L637.2780853090576,175.5021175514302 M637.2780853090576,175.5021175514302 L658.3427415671281,190.35202948785297 M658.3427415671281,190.35202948785297 L676.6201764555913,206.3883328223789 M676.6201764555913,206.3883328223789 L691.9088055182538,223.43950904435906 M691.9088055182538,223.43950904435906 L704.0384232104786,241.32264346188686 M704.0384232104786,241.32264346188686 L712.8723972895828,259.84523323103326 M712.8723972895828,259.84523323103326 L718.3091497009773,278.8072547593134 M718.3091497009773,278.8072547593134 L720.2835998900878,298.00321859887146 M720.2835998900878,298.00321859887146 L718.7681311352542,317.22435560784385 M718.7681311352542,317.22435560784385 L713.7731130117302,336.26089642194154 M713.7731130117302,336.26089642194154 L705.3470901227922,354.90436625008863 M705.3470901227922,354.90436625008863 L693.5764473534375,372.9498562469506 M693.5764473534375,372.9498562469506 L678.5848203674877,390.198397377281 M678.5848203674877,390.198397377281 L660.5318383536355,406.4591626132881 M660.5318383536355,406.4591626132881 L639.6116340843216,421.55174829319026 M639.6116340843216,421.55174829319026 L639.184028012904,538.0029803584366 M513.408766643199,348.98033096439514 L639.6116340843216,421.55174829319026 M513.408766643199,348.98033096439514 L513.4593659609504,319.8349661425383 M640.0715361419745,392.57652453502175 L513.4593659609504,319.8349661425383 M639.5359993580387,538.2061008335306 L640.0715361419745,392.57652453502175 M387.32623396050235,684.993778196958 L387.2977943423953,539.0397656190115 M387.2977943423953,539.0397656190115 L640.0715361419745,392.57652453502175 M627.3848495321952,429.04981884360313 L626.9789692044717,545.5143717401679 M260.9960515550213,611.435857604487 L260.68461452981734,465.6440589902096 M260.68461452981734,465.6440589902096 L387.2977943423953,539.0397656190115 M297.2124924388773,473.8013080740544 L513.408766643199,348.98033096439514 M513.4593659609504,319.8349661425383 L260.68461452981734,465.6440589902096 M497.1633090703035,358.359650267215 L497.1202144805073,387.3279770830648 M497.1202144805073,387.3279770830648 L480.7099395047209,379.2545910374819 M480.7099395047209,379.2545910374819 L462.32371844560964,372.7622312461987 M462.32371844560964,372.7622312461987 L442.41253208306074,368.0087997750233 M442.41253208306074,368.0087997750233 L421.4639545043285,365.10978468419734 M421.4639545043285,365.10978468419734 L399.99039590357086,364.13556044439895 M399.99039590357086,364.13556044439895 L378.51683730281314,365.10978468419734 M378.51683730281314,365.10978468419734 L357.5682597240809,368.0087997750233 M357.5682597240809,368.0087997750233 L337.65707336153207,372.7622312461987 M337.65707336153207,372.7622312461987 L319.2708523024208,379.2545910374819 M319.2708523024208,379.2545910374819 L302.86057732663403,387.327977083065 M302.86057732663403,387.327977083065 L288.8297233579255,396.7857851979512 M288.8297233579255,396.7857851979512 L277.52434911896654,407.39731287375275 M277.52434911896654,407.39731287375275 L269.22456344790595,418.90324765029163 M269.22456344790595,418.90324765029163 L264.13743547564786,431.02184669229683 M264.13743547564786,431.02184669229683 L262.39162108488813,443.4557288865327 M262.39162108488813,443.4557288865327 L264.0339192965331,455.8990853533369 M264.0339192965331,455.8990853533369 L269.02766390946664,468.04517981227275 M269.02766390946664,468.04517981227275 L277.25333998356234,479.5939397518798 M277.25333998356234,479.5939397518798 L288.5111327634165,490.2594303580147 M288.5111327634165,490.2594303580147 L302.525591024595,499.777056960336 M302.525591024595,499.777056960336 L318.9522611244138,507.91026157931293 M318.9522611244138,507.91026157931293 L337.3860632820081,514.4565846081629 M337.3860632820081,514.4565846081629 L357.3713592415219,519.2528416070618 M357.3713592415219,519.2528416070618 L378.41332054020035,522.1793523854607 M378.41332054020035,522.1793523854607 L399.99039590357086,523.1630510433893 M399.99039590357086,523.1630510433893 L421.5674712669414,522.1793523854607 M421.5674712669414,522.1793523854607 L442.6094325656198,519.2528416070618 M442.6094325656198,519.2528416070618 L462.5947285251336,514.4565846081629 M462.5947285251336,514.4565846081629 L481.0285306827279,507.91026157931293 M481.0285306827279,507.91026157931293 L497.4552007825475,499.77705696033547 M497.4552007825475,499.77705696033547 L511.46965904372513,490.2594303580147 M511.46965904372513,490.2594303580147 L522.7274518235793,479.5939397518799 M522.7274518235793,479.5939397518799 L530.9531278976749,468.04517981227275 M530.9531278976749,468.04517981227275 L535.9468725106085,455.8990853533369 M535.9468725106085,455.8990853533369 L537.5891707222536,443.4557288865327 M537.5891707222536,443.4557288865327 L535.8433563314939,431.02184669229683 M535.8433563314939,431.02184669229683 L530.7562283592358,418.9032476502917 M530.7562283592358,418.9032476502917 L522.4564426881752,407.39731287375275 M522.4564426881752,407.39731287375275 L511.15106844921615,396.7857851979513 M511.15106844921615,396.7857851979513 L497.1202144805073,387.3279770830648 M481.65784191611846,251.24842035952105 L494.62435424096117,260.11026616387545 M494.62435424096117,260.11026616387545 L504.7254919067119,270.1345498328877 M504.7254919067119,270.1345498328877 L511.6524900835104,281.01853909002426 M511.6524900835104,281.01853909002426 L515.1920569929039,292.43290318906224 M515.1920569929039,292.43290318906224 L515.2331578431003,304.0315589211807 M515.2331578431003,304.0315589211807 L511.7708352958762,315.46209720229336 M511.7708352958762,315.46209720229336 L504.9068073815037,326.3764840014828 M504.9068073815037,326.3764840014828 L494.84677072283284,336.44172220547455 M494.84677072283284,336.44172220547455 L481.89453276399786,345.3501398559592 M481.89453276399786,345.3501398559592 L466.44297956018124,352.82895221005447 M466.44297956018124,352.82895221005447 L448.96223803686894,358.64881325166215 M448.96223803686894,358.64881325166215 L429.98530094600625,362.6310288664461 M429.98530094600625,362.6310288664461 L410.0916245974301,364.65322814610744 M410.0916245974301,364.65322814610744 L389.8891672097115,364.65322814610744 M389.8891672097115,364.65322814610744 L369.99549086113535,362.6310288664461 M369.99549086113535,362.6310288664461 L351.0185537702727,358.64881325166215 M351.0185537702727,358.64881325166215 L333.5378122469604,352.82895221005447 M333.5378122469604,352.82895221005447 L318.08625904314357,345.35013985595896 M318.08625904314357,345.35013985595896 L305.13402108430887,336.4417222054745 M305.13402108430887,336.4417222054745 L295.0739844256379,326.3764840014828 M295.0739844256379,326.3764840014828 L288.2099565112655,315.46209720229336 M288.2099565112655,315.46209720229336 L284.7476339640413,304.0315589211806 M284.7476339640413,304.0315589211806 L284.7887348142377,292.4329031890622 M284.7887348142377,292.4329031890622 L288.3283017236313,281.01853909002415 M288.3283017236313,281.01853909002415 L295.25529990042975,270.1345498328877 M295.25529990042975,270.1345498328877 L305.3564375661805,260.11026616387534 M305.3564375661805,260.11026616387534 L318.32294989102337,251.24842035952096 M318.32294989102337,251.24842035952096 L333.76022904739636,243.8161799152568 M333.76022904739636,243.8161799152568 L351.19986973313337,238.03727359268052 M351.19986973313337,238.03727359268052 L370.11383650270176,234.08545570335102 M370.11383650270176,234.08545570335102 L389.93026822941243,232.07943074943518 M389.93026822941243,232.07943074943518 L410.0505235777292,232.07943074943518 M410.0505235777292,232.07943074943518 L429.8669553044399,234.08545570335102 M429.8669553044399,234.08545570335102 L448.7809220740083,238.03727359268052 M448.7809220740083,238.03727359268052 L466.22056275974535,243.8161799152568 M466.22056275974535,243.8161799152568 L481.65784191611846,251.24842035952105 M468.9556429663619,403.6032476720324 L454.64617873161427,396.7910473483867 M454.64617873161427,396.7910473483867 L438.36967909490056,391.6652517640728 M438.36967909490056,391.6652517640728 L420.71256951721915,388.40946003059355 M420.71256951721915,388.40946003059355 L402.31025245118195,387.14020716086264 M402.31025245118195,387.14020716086264 L383.82451610603295,387.9028974818806 M383.82451610603295,387.9028974818806 L365.9201139057649,390.67025327169034 M365.9201139057649,390.67025327169034 L349.24119852093014,395.34323440485355 M349.24119852093014,395.34323440485355 L334.38847688260773,401.7544913847467 M334.38847688260773,401.7544913847467 L321.8978076568474,409.6742023185227 M321.8978076568474,409.6742023185227 L312.2209404625917,418.8180852111217 M312.2209404625917,418.8180852111217 L305.7091834068125,428.85741553359105 M305.7091834068125,428.85741553359105 L302.6004610079636,439.43063993019314 M302.6004610079636,439.43063993019314 L303.0103580562134,450.15627583404984 M303.0103580562134,450.15627583404984 L306.9274817788466,460.64657317655343 M306.9274817788466,460.64657317655343 L314.21337109148516,470.521570629328 M314.21337109148516,470.521570629328 L324.60705908124197,479.4229400887665 M324.60705908124197,479.4229400887665 L337.7341848020982,487.02711911424973 M337.7341848020982,487.02711911424973 L353.12030708708,493.05729118908266 M353.12030708708,493.05729118908266 L370.20804975006797,497.2936754186418 M370.20804975006797,497.2936754186418 L388.3774670015332,499.5817170996443 M388.3774670015332,499.5817170996443 L406.9687501151065,499.8378929761183 M406.9687501151065,499.8378929761183 L425.3065159226823,498.05285239860353 M425.3065159226823,498.05285239860353 L442.7247630893393,494.2917615316727 M442.7247630893393,494.2917615316727 L458.5913546319474,488.6918549628084 M458.5913546319474,488.6918549628084 L472.3312692996065,481.45729432188597 M472.3312692996065,481.45729432188597 L483.44758126226725,472.85152160546465 M483.44758126226725,472.85152160546465 L491.53950550124085,463.18747653677127 M491.53950550124085,463.18747653677127 L496.31669936726496,452.8159946474353 M496.31669936726496,452.8159946474353 L497.6094655419342,442.1129088233422 M497.6094655419342,442.1129088233422 L495.3744819535669,431.4653341031918 M495.3744819535669,431.4653341031918 L489.69583589386696,421.2576256628032 M489.69583589386696,421.2576256628032 L480.78155108780635,411.8575706723301 M480.78155108780635,411.8575706723301 L468.9556429663619,403.6032476720324 M481.65784191611846,251.24842035952105 L481.78512058072675,149.28037625141044 M481.78512058072675,149.28037625141044 L494.77188152418705,158.12816298550317 M494.77188152418705,158.12816298550317 L504.8888165837867,168.13655248208102 M504.8888165837867,168.13655248208102 L511.8266751992514,179.0032953518989 M511.8266751992514,179.0032953518989 L515.3718268037301,190.39958484796927 M515.3718268037301,190.39958484796927 L515.4130560510189,201.97988694392535 M515.4130560510189,201.97988694392535 L511.9453901164996,213.39235023220533 M511.9453901164996,213.39235023220533 L505.07069847986736,224.28948991143693 M505.07069847986736,224.28948991143693 L494.99499282546145,234.3388329560514 M494.99499282546145,234.3388329560514 L482.02255084103774,243.2331904141585 M482.02255084103774,243.2331904141585 L466.5468703917901,250.70020480130654 M466.5468703917901,250.70020480130654 L449.03881347836955,256.510888612009 M449.03881347836955,256.510888612009 L430.0322086017745,260.4868266155571 M430.0322086017745,260.4868266155571 L410.1074224275403,262.505838658547 M410.1074224275403,262.505838658547 L389.87336937960134,262.50583865854696 M389.87336937960134,262.50583865854696 L369.94858320536713,260.4868266155571 M369.94858320536713,260.4868266155571 L350.94197832877205,256.510888612009 M350.94197832877205,256.510888612009 L333.4339214153516,250.70020480130654 M333.4339214153516,250.70020480130654 L317.9582409661037,243.23319041415834 M317.9582409661037,243.23319041415834 L304.9857989816802,234.3388329560513 M304.9857989816802,234.3388329560513 L294.9100933272743,224.28948991143693 M294.9100933272743,224.28948991143693 L288.035401690642,213.39235023220525 M288.035401690642,213.39235023220525 L284.56773575612266,201.97988694392535 M284.56773575612266,201.97988694392535 L284.6089650034117,190.39958484796927 M284.6089650034117,190.39958484796927 L288.1541166078902,179.0032953518989 M288.1541166078902,179.0032953518989 L295.0919752233549,168.13655248208102 M295.0919752233549,168.13655248208102 L305.20891028295455,158.12816298550317 M305.20891028295455,158.12816298550317 L318.19567122641513,149.28037625141027 M318.19567122641513,149.28037625141027 L333.65703303718374,141.8599326521845 M333.65703303718374,141.8599326521845 L351.1238607159757,136.09020257409372 M351.1238607159757,136.09020257409372 L370.06729855450175,132.1446615639564 M370.06729855450175,132.1446615639564 L389.9145987974556,130.14182345723498 M389.9145987974556,130.14182345723498 L410.06619300968606,130.14182345723498 M410.06619300968606,130.14182345723498 L429.91349325263997,132.1446615639564 M429.91349325263997,132.1446615639564 L448.856931091166,136.09020257409372 M448.856931091166,136.09020257409372 L466.3237587699579,141.8599326521845 M466.3237587699579,141.8599326521845 L481.78512058072675,149.28037625141044 M468.9556429663619,403.6032476720324 L469.0245622672242,338.3720228237801 M469.0245622672242,338.3720228237801 L454.7007866840656,331.5666519938677 M454.7007866840656,331.5666519938677 L438.40801875901417,326.445997090156 M438.40801875901417,326.445997090156 L420.73326823036376,323.1934714381837 M420.73326823036376,323.1934714381837 L402.3125695910265,321.92549200850635 M402.3125695910265,321.92549200850635 L383.80836877944535,322.68741711131304 M383.80836877944535,322.68741711131304 L365.88607983419337,325.4519966720679 M365.88607983419337,325.4519966720679 L349.19049598832964,330.12029090467763 M349.19049598832964,330.12029090467763 L334.3229223882011,336.5251197051955 M334.3229223882011,336.5251197051955 L321.81975255736,344.4368934975608 M321.81975255736,344.4368934975608 L312.1331885308359,353.57161715756644 M312.1331885308359,353.57161715756644 L305.6148919928171,363.6008971907496 M305.6148919928171,363.6008971907496 L302.50302895836694,374.16354349105774 M302.50302895836694,374.16354349105774 L302.91330418370933,384.8784558081821 M302.91330418370933,384.8784558081821 L306.8343180750655,395.3582716688312 M306.8343180750655,395.3582716688312 L314.12747519281714,405.223408577275 M314.12747519281714,405.223408577275 L324.5315506977124,414.1158948103938 M324.5315506977124,414.1158948103938 L337.6718108024943,421.7124889971619 M337.6718108024943,421.7124889971619 L353.07333965313967,427.73664875312943 M353.07333965313967,427.73664875312943 L370.17820167951845,431.9688104719652 M370.17820167951845,431.9688104719652 L388.3658276301347,434.25457206113487 M388.3658276301347,434.25457206113487 L406.97574441376497,434.5104926717675 M406.97574441376497,434.5104926717675 L425.3318885002936,432.7272308772014 M425.3318885002936,432.7272308772014 L442.7675878298443,428.96988855466515 M442.7675878298443,428.96988855466515 L458.65006945502057,423.37556481615735 M458.65006945502057,423.37556481615735 L472.40373468576763,416.148219516639 M472.40373468576763,416.148219516639 L483.53116006945237,407.55103388285613 M483.53116006945237,407.55103388285613 L491.6311608942957,397.8966372742606 M491.6311608942957,397.8966372742606 L496.41310686415346,387.5355165004455 M496.41310686415346,387.5355165004455 L497.7071348547789,376.84312996750515 M497.7071348547789,376.84312996750515 L495.4698839885578,366.2062060043795 M495.4698839885578,366.2062060043795 L489.7855301344281,356.0087148383891 M489.7855301344281,356.0087148383891 L480.8623088680219,346.61807435272704 M480.8623088680219,346.61807435272704 L469.0245622672242,338.3720228237801" stroke="black"  stroke-width="4"  fill="red"/></svg>